<?xml version="1.0" encoding="UTF-8" standalone="no"?>
<svg
   xmlns:dc="http://purl.org/dc/elements/1.1/"
   xmlns:cc="http://creativecommons.org/ns#"
   xmlns:rdf="http://www.w3.org/1999/02/22-rdf-syntax-ns#"
   xmlns:svg="http://www.w3.org/2000/svg"
   xmlns="http://www.w3.org/2000/svg"
   viewBox="0 0 822.66669 677.33331"
   height="677.33331"
   width="822.66669"
   xml:space="preserve"
   id="svg2"
   version="1.1"><metadata
     id="metadata8"><rdf:RDF><cc:Work
         rdf:about=""><dc:format>image/svg+xml</dc:format><dc:type
           rdf:resource="http://purl.org/dc/dcmitype/StillImage" /></cc:Work></rdf:RDF></metadata><defs
     id="defs6" /><g
     transform="matrix(1.3333333,0,0,-1.3333333,0,677.33333)"
     id="g10"><g
       id="g12" /><g
       transform="matrix(1,0,0,-1,12.95,509.55)"
       id="g14"><g
         id="g16"><path
           id="path18"
           style="fill:#99ccff;fill-opacity:1;fill-rule:nonzero;stroke:none"
           d="m 390.52,170.43 c -36.21,12.7 -70.1,20.16 -101.69,22.38 l -0.07,-2 -9.9,2.89 10.09,2.11 -0.08,-2 c 31.81,-1.58 65.81,-9.06 102.01,-22.44" /></g><g
         id="g20"><path
           id="path22"
           style="fill:#99ccff;fill-opacity:1;fill-rule:nonzero;stroke:none"
           d="m 121.98,82.15 c 51.1,3.25 98.3,-0.25 141.6,-10.48 l 0.42,1.95 9.26,-4.53 -10.31,-0.36 0.42,1.96 c -43.28,9.56 -90.39,13.05 -141.35,10.46" /></g><g
         id="g24"><path
           id="path26"
           style="fill:#99ccff;fill-opacity:1;fill-rule:nonzero;stroke:none"
           d="m 121.57,81.39 c -24.1,37.8 -49.89,69.91 -77.39,96.34 l -1.35,-1.48 -5.7,8.6 9.08,-4.9 -1.35,-1.48 c 28.07,-26.06 53.93,-58.25 77.57,-96.56" /></g><g
         id="g28"><path
           id="path30"
           style="fill:#99ccff;fill-opacity:1;fill-rule:nonzero;stroke:none"
           d="m 224.2,131.29 c -33.25,13.22 -64.36,21.06 -93.33,23.54 l -0.1,-2 -9.87,3.02 10.13,1.99 -0.1,-2 c 29.22,-1.85 60.44,-9.72 93.67,-23.63" /></g><g
         id="g32"><path
           id="path34"
           style="fill:#99ccff;fill-opacity:1;fill-rule:nonzero;stroke:none"
           d="m 223.93,131.92 c 7.22,22.94 17.62,39.63 31.18,50.07 l -1.31,1.52 9.23,4.65 -5.95,-8.45 -1.31,1.52 c -12.92,-10.72 -23.22,-27.27 -30.9,-49.65" /></g><g
         id="g36"><path
           id="path38"
           style="fill:#99ccff;fill-opacity:1;fill-rule:nonzero;stroke:none"
           d="m 224.22,132.22 c 49.64,19.57 97.64,31.71 143.98,36.42 l -0.25,2 10.28,-1.28 -9.66,-3.73 -0.25,2 C 322.2,162.29 274.29,150.17 224.58,131.28" /></g><g
         id="g40"><path
           id="path42"
           style="fill:#99ccff;fill-opacity:1;fill-rule:nonzero;stroke:none"
           d="m 210.12,323.53 c 35.05,31.76 71.11,55.83 108.19,72.23 l -0.87,1.83 10.18,2.01 -8.02,-6.58 -0.86,1.82 C 282.11,377.92 246.12,353.9 210.78,322.77" /></g><g
         id="g44"><path
           id="path46"
           style="fill:#99ccff;fill-opacity:1;fill-rule:nonzero;stroke:none"
           d="M 210.72,322.72 C 149.67,283.61 94.41,242.38 44.95,199.01 l 1.36,-1.5 -9.16,-4.88 5.77,8.63 1.35,-1.5 c 49.1,43.94 104.41,85.22 165.91,123.82" /></g><g
         id="g48"><path
           id="path50"
           style="fill:#99ccff;fill-opacity:1;fill-rule:nonzero;stroke:none"
           d="m 224.32,131.24 c -64.85,9.08 -126.64,12.89 -185.37,11.44 l 0.09,-2.02 -10.19,2.12 9.98,2.96 0.08,-2.03 c 58.82,2.11 120.68,-1.7 185.57,-11.45" /></g><g
         id="g52"><path
           id="path54"
           style="fill:#96c9fc;fill-opacity:1;fill-rule:nonzero;stroke:none"
           d="m 201.92,218.61 c 60.79,-7.27 116.65,-20.48 167.58,-39.63 l 0.68,1.92 8.68,-5.8 -10.39,0.98 0.68,1.92 c -51.03,18.48 -106.82,31.68 -167.37,39.59" /></g><g
         id="g56"><path
           id="path58"
           style="fill:#96c9fc;fill-opacity:1;fill-rule:nonzero;stroke:none"
           d="m 210.36,323.68 c 42.11,8.12 80.94,9.27 116.48,3.45 l 0.27,2.05 9.79,-3.96 -10.49,-1.2 0.28,2.05 c -35.43,5.15 -74.15,4 -116.15,-3.45" /></g><g
         id="g60"><path
           id="path62"
           style="fill:#96c9fc;fill-opacity:1;fill-rule:nonzero;stroke:none"
           d="M 210.88,322.84 C 175.17,271.7 145.57,220.96 122.07,170.63 l 1.89,-0.84 -6.53,-8.29 1.78,10.4 1.89,-0.84 c 22.94,50.73 52.58,101.53 88.92,152.4" /></g><g
         id="g64"><path
           id="path66"
           style="fill:#96c9fc;fill-opacity:1;fill-rule:nonzero;stroke:none"
           d="m 380.66,193.29 10.04,-22.39 -0.98,-0.44 -10.04,22.39 c -13,27.41 -29.34,52.69 -49.01,75.84 l -1.55,-1.37 -4.44,9.75 6.79,-7.66 c 20.31,-22.89 36.71,-48.26 49.19,-76.12" /></g><g
         id="g68"><path
           id="path70"
           style="fill:#96c9fc;fill-opacity:1;fill-rule:nonzero;stroke:none"
           d="m 205.35,126.4 19.05,5.35 0.29,-1.04 -19.05,-5.34 c -22.48,-6.99 -43.47,-17.06 -62.95,-30.22 l 1.2,-1.69 -10.16,-3.4 8.33,5.96 c 19.29,13.83 40.39,23.95 63.29,30.38" /></g><g
         id="g72"><path
           id="path74"
           style="fill:#96c9fc;fill-opacity:1;fill-rule:nonzero;stroke:none"
           d="m 201.58,217.63 c -24.47,13.2 -47.06,21.17 -67.77,23.93 l -0.18,-2.07 -10,3.48 10.44,1.74 -0.17,-2.07 c 21.05,-2.15 43.79,-10.17 68.22,-24.07" /></g><g
         id="g76"><path
           id="path78"
           style="fill:#94c7fa;fill-opacity:1;fill-rule:nonzero;stroke:none"
           d="m 209.98,323.43 c 21.52,37.98 46.22,68.91 74.11,92.8 l -1.4,1.55 9.41,4.96 -5.87,-8.88 -1.4,1.55 c -27.31,-24.23 -51.95,-55.08 -73.91,-92.54" /></g><g
         id="g80"><path
           id="path82"
           style="fill:#94c7fa;fill-opacity:1;fill-rule:nonzero;stroke:none"
           d="m 209.91,323.24 c 5.33,40.43 16.08,75.5 32.26,105.21 l -1.87,0.94 7.01,8.01 -2.3,-10.39 -1.87,0.94 c -15.5,-29.82 -26.21,-64.78 -32.15,-104.89" /></g><g
         id="g84"><path
           id="path86"
           style="fill:#94c7fa;fill-opacity:1;fill-rule:nonzero;stroke:none"
           d="M 210.56,322.6 C 155.92,311.11 106.07,295.87 61.02,276.88 l 0.86,-1.94 -10.57,-1.79 8.39,6.68 0.86,-1.93 c 44.93,19.66 94.86,34.92 149.78,45.8" /></g><g
         id="g88"><path
           id="path90"
           style="fill:#94c7fa;fill-opacity:1;fill-rule:nonzero;stroke:none"
           d="m 209.89,323.08 c -6.75,43.44 -6.61,83.32 0.4,119.64 l -2.09,0.34 4.33,9.82 0.96,-10.69 -2.09,0.35 c -6.34,-36.23 -6.47,-76 -0.39,-119.32" /></g><g
         id="g92"><path
           id="path94"
           style="fill:#94c7fa;fill-opacity:1;fill-rule:nonzero;stroke:none"
           d="m 252.8,183.84 17.05,10.21 0.58,-0.97 -17.04,-10.21 C 213.23,158.04 175.73,129.7 140.88,97.85 l 1.46,-1.55 -9.82,-4.76 7.59,7.13 c 34.5,32.43 72.06,60.82 112.69,85.17" /></g><g
         id="g96"><path
           id="path98"
           style="fill:#8fc3f6;fill-opacity:1;fill-rule:nonzero;stroke:none"
           d="M 210.7,322.59 C 143.97,291.11 82.84,256.93 27.32,220.05 l 1.25,-1.82 -10.41,-3.73 7.21,8.38 1.26,-1.82 c 55.25,37.49 116.44,71.71 183.57,102.65" /></g><g
         id="g100"><path
           id="path102"
           style="fill:#8fc3f6;fill-opacity:1;fill-rule:nonzero;stroke:none"
           d="m 190.44,343.94 20.01,-20.79 -0.88,-0.85 -20.02,20.79 c -23.54,23.51 -49.49,43.98 -77.87,61.41 l -1.12,-1.91 -7.48,8.38 9.22,-5.42 c 28.89,-16.98 54.94,-37.52 78.14,-61.61" /></g><g
         id="g104"><path
           id="path106"
           style="fill:#8fc3f6;fill-opacity:1;fill-rule:nonzero;stroke:none"
           d="m 210.14,323.69 c 37.4,22.6 73.98,37.43 109.75,44.5 l -0.5,2.18 11.14,-0.39 -9.87,-5.19 -0.49,2.18 c -35.42,-7.65 -71.89,-22.44 -109.41,-44.36" /></g><g
         id="g108"><path
           id="path110"
           style="fill:#8fc3f6;fill-opacity:1;fill-rule:nonzero;stroke:none"
           d="M 140.11,98.67 122,81.65 l -0.88,0.93 18.11,17.03 c 34.17,33.01 71.8,61.46 112.92,85.32 l -1.16,1.94 11.12,2.55 -9.31,-5.58 C 212.17,159.49 174.61,131.1 140.11,98.67" /></g><g
         id="g112"><path
           id="path114"
           style="fill:#8fc3f6;fill-opacity:1;fill-rule:nonzero;stroke:none"
           d="m 112.3,405.55 -15.9,9.35 0.65,1.1 15.9,-9.34 c 29.41,-16.54 55.55,-37.15 78.41,-61.84 l 1.63,1.57 4.98,-10.27 -7.53,7.82 c -23.2,24.09 -49.25,44.63 -78.14,61.61" /></g><g
         id="g116"><path
           id="path118"
           style="fill:#8cc1f4;fill-opacity:1;fill-rule:nonzero;stroke:none"
           d="M 210.35,322.51 C 151.9,330.8 96.83,333.97 45.12,332.03 l 0.13,-2.28 -11.06,2.29 10.72,3.56 0.13,-2.28 c 51.83,2.61 107,-0.57 165.51,-9.53" /></g><g
         id="g120"><path
           id="path122"
           style="fill:#8abff2;fill-opacity:1;fill-rule:nonzero;stroke:none"
           d="M 390.87,170.22 C 304.16,147.24 222.54,120.74 146,90.69 l 0.89,-2.19 -11.53,-1.39 9.21,7.08 0.9,-2.2 c 76.38,30.7 158.07,57.23 245.06,79.59" /></g><g
         id="g124"><path
           id="path126"
           style="fill:#88bcef;fill-opacity:1;fill-rule:nonzero;stroke:none"
           d="m 122.19,82.34 c 39.94,-9.75 73.63,-24.25 101.07,-43.51 l 1.31,2.01 7.74,-8.78 -11.14,3.56 1.3,2.01 C 194.88,56.21 161.33,70.66 121.81,80.96" /></g><g
         id="g128"><path
           id="path130"
           style="fill:#88bcef;fill-opacity:1;fill-rule:nonzero;stroke:none"
           d="m 201.13,218 c -5.42,29.78 -4.89,55.4 1.58,76.86 l -2.34,0.58 5.76,10.24 0.33,-11.75 -2.34,0.58 c -5.78,-21.36 -6.3,-46.79 -1.55,-76.31" /></g><g
         id="g132"><path
           id="path134"
           style="fill:#88bcef;fill-opacity:1;fill-rule:nonzero;stroke:none"
           d="m 210.82,322.52 c -32.98,-20.8 -60.16,-42.68 -81.56,-65.64 l 1.83,-1.59 -9.82,-6.52 5.05,10.65 1.83,-1.58 c 21.07,23.58 48.38,45.56 81.93,65.94" /></g><g
         id="g136"><path
           id="path138"
           style="fill:#85baed;fill-opacity:1;fill-rule:nonzero;stroke:none"
           d="M 142.06,96.02 122,81.65 l -0.88,1.23 20.06,14.37 c 19.15,14.51 40.4,24.71 63.76,30.61 l -0.66,2.37 12.12,-0.73 -11.05,-3.1 c -22.9,-6.43 -44,-16.55 -63.29,-30.38" /></g><g
         id="g140"><path
           id="path142"
           style="fill:#85baed;fill-opacity:1;fill-rule:nonzero;stroke:none"
           d="m 225.13,151.67 -0.73,-19.92 -1.52,0.06 0.73,19.92 c 1.08,47.66 -2.12,95.03 -9.62,142.11 l -2.42,-0.42 1.96,11.99 1.96,-11.31 c 8.17,-47.13 11.38,-94.6 9.64,-142.43" /></g><g
         id="g144"><path
           id="path146"
           style="fill:#85baed;fill-opacity:1;fill-rule:nonzero;stroke:none"
           d="m 389.94,170.83 c -3.81,28.12 -10.47,51.36 -19.98,69.72 l -2.12,-1.26 -3.06,11.56 8.62,-8.27 -2.12,-1.26 c 10.22,-18.33 16.94,-41.78 20.18,-70.35" /></g><g
         id="g148"><path
           id="path150"
           style="fill:#83b8eb;fill-opacity:1;fill-rule:nonzero;stroke:none"
           d="m 215.49,294.1 -5.04,29.05 1.55,0.27 5.04,-29.06 c 8.85,-47.17 12.07,-94.76 9.66,-142.75 l 2.5,-0.09 -4.5,-11.47 0.43,11.62 c 1.74,47.83 -1.47,95.3 -9.64,142.43" /></g><g
         id="g152"><path
           id="path154"
           style="fill:#83b8eb;fill-opacity:1;fill-rule:nonzero;stroke:none"
           d="m 39.82,135.28 -18.77,7.17 0.57,1.49 18.77,-7.17 c 23.37,-8.25 44.27,-20.59 62.7,-37.03 l 1.63,1.93 6.26,-10.7 -8.92,7.55 c -18.64,15.77 -39.38,28.02 -62.24,36.76" /></g><g
         id="g156"><path
           id="path158"
           style="fill:#80b6e9;fill-opacity:1;fill-rule:nonzero;stroke:none"
           d="m 226.59,297.53 -16.14,25.62 1.36,0.86 16.14,-25.62 c 17.1,-25.9 29.66,-53.9 37.69,-83.98 l 2.43,0.71 -0.72,-12.41 -3.26,11.26 c -8.57,29.65 -21.07,57.5 -37.5,83.56" /></g><g
         id="g160"><path
           id="path162"
           style="fill:#7eb4e7;fill-opacity:1;fill-rule:nonzero;stroke:none"
           d="m 331.47,269.41 -10.77,12.14 1.28,1.14 10.78,-12.14 c 20.98,-22.68 37.47,-48.2 49.47,-76.56 l 2.39,1.07 0.94,-12.7 -4.9,10.93 c -12.48,27.86 -28.88,53.23 -49.19,76.12" /></g><g
         id="g164"><path
           id="path166"
           style="fill:#7eb4e7;fill-opacity:1;fill-rule:nonzero;stroke:none"
           d="M 202.53,217.57 C 173.7,179.04 150.66,141.68 133.42,105.49 l 2.4,-1.06 -8.01,-9.57 1.63,12.38 2.4,-1.06 c 16.73,36.65 39.84,74.13 69.33,112.45" /></g><g
         id="g168"><path
           id="path170"
           style="fill:#79afe2;fill-opacity:1;fill-rule:nonzero;stroke:none"
           d="m 210.05,322.34 c -45.01,21 -87.69,36.34 -128.06,46.04 l -0.55,-2.64 -11.2,6.02 12.67,1.03 -0.55,-2.63 c 40.73,-9.11 83.56,-24.5 128.49,-46.2" /></g><g
         id="g172"><path
           id="path174"
           style="fill:#79afe2;fill-opacity:1;fill-rule:nonzero;stroke:none"
           d="m 264.09,213.97 5.76,-19.92 -1.78,-0.51 -5.76,19.91 c -9.11,29.2 -21.54,56.9 -37.28,83.1 l -2.3,-1.45 -2.68,12.82 6.54,-10.39 c 16.43,-26.06 28.93,-53.91 37.5,-83.56" /></g><g
         id="g176"><path
           id="path178"
           style="fill:#77ade0;fill-opacity:1;fill-rule:nonzero;stroke:none"
           d="M 102.06,98.52 122,81.65 120.8,80.23 100.86,97.1 c -18.82,15.08 -39.39,27.23 -61.7,36.44 l -0.98,-2.55 -9.84,8.67 11.48,-4.38 c 22.86,-8.74 43.6,-20.99 62.24,-36.76" /></g><g
         id="g180"><path
           id="path182"
           style="fill:#5e98cb;fill-opacity:1;fill-rule:nonzero;stroke:none"
           d="m 237.77,303.67 -27.32,19.48 1.47,2.06 27.32,-19.48 c 48.59,-33.83 93.52,-71.98 134.8,-114.46 l 2.25,2.24 5.56,-13.7 -9.61,9.67 c -41.6,41.87 -86.42,79.94 -134.47,114.19" /></g><g
         id="g184"><path
           id="path186"
           style="fill:#306fa2;fill-opacity:1;fill-rule:nonzero;stroke:none"
           d="m 130.5,112.02 -8.5,-30.37 -3.6,1.01 8.5,30.36 c 16.76,62.34 38.84,122.74 66.24,181.19 l -3.52,1.6 13.36,10.96 -6.44,-14.11 C 169.84,234.16 147.83,173.94 130.5,112.02" /></g><g
         id="g188"><path
           id="path190"
           style="fill:#306fa2;fill-opacity:1;fill-rule:nonzero;stroke:none"
           d="m 372.24,189.48 18.46,-18.58 -2.67,-2.65 -18.46,18.58 c -41.87,41.22 -86.53,79.14 -133.98,113.78 l -2.26,-3.16 -8.22,15.25 12.66,-9.03 c 48.05,-34.25 92.87,-72.32 134.47,-114.19" /></g><g
         id="g192"><path
           id="path194"
           style="fill:#004477;fill-opacity:1;fill-rule:nonzero;stroke:none"
           d="m 196.54,292.66 13.91,30.49 4.55,-2.08 -13.92,-30.49 C 175.11,232.09 153.19,172.12 135.31,110.67 l 4.31,-1.21 -13.73,-13.91 4.61,16.47 c 17.33,61.92 39.34,122.14 66.04,180.64" /></g><g
         id="g196"><path
           id="path198"
           style="fill:#ff9900;fill-opacity:1;fill-rule:nonzero;stroke:#ed8e00;stroke-width:0.75;stroke-linecap:butt;stroke-linejoin:miter;stroke-miterlimit:10;stroke-dasharray:none;stroke-opacity:1"
           d="m 228.45,323.15 c 0,9.94 -8.06,18 -18,18 -9.94,0 -18,-8.06 -18,-18 0,-9.94 8.06,-18 18,-18 9.94,0 18,8.06 18,18" /></g><g
         id="g200"><path
           id="path202"
           style="fill:#660000;fill-opacity:1;fill-rule:nonzero;stroke:none"
           d="m 228.45,323.15 c 0,9.94 -8.06,18 -18,18 -9.94,0 -18,-8.06 -18,-18 0,-9.94 8.06,-18 18,-18 9.94,0 18,8.06 18,18" /></g><g
         id="g204"><path
           id="path206"
           style="fill:#ff9900;fill-opacity:1;fill-rule:nonzero;stroke:#ed8e00;stroke-width:0.75;stroke-linecap:butt;stroke-linejoin:miter;stroke-miterlimit:10;stroke-dasharray:none;stroke-opacity:1"
           d="m 136.43,81.65 c 0,7.97 -6.46,14.43 -14.43,14.43 -7.97,0 -14.43,-6.46 -14.43,-14.43 0,-7.97 6.46,-14.43 14.43,-14.43 7.97,0 14.43,6.46 14.43,14.43" /></g><g
         id="g208"><path
           id="path210"
           style="fill:#8a2400;fill-opacity:1;fill-rule:nonzero;stroke:none"
           d="m 136.43,81.65 c 0,7.97 -6.46,14.43 -14.43,14.43 -7.97,0 -14.43,-6.46 -14.43,-14.43 0,-7.97 6.46,-14.43 14.43,-14.43 7.97,0 14.43,6.46 14.43,14.43" /></g><g
         id="g212"><path
           id="path214"
           style="fill:#ff9900;fill-opacity:1;fill-rule:nonzero;stroke:#ed8e00;stroke-width:0.75;stroke-linecap:butt;stroke-linejoin:miter;stroke-miterlimit:10;stroke-dasharray:none;stroke-opacity:1"
           d="m 403.26,170.9 c 0,6.94 -5.62,12.56 -12.56,12.56 -6.94,0 -12.56,-5.62 -12.56,-12.56 0,-6.94 5.62,-12.56 12.56,-12.56 6.94,0 12.56,5.62 12.56,12.56" /></g><g
         id="g216"><path
           id="path218"
           style="fill:#9d3700;fill-opacity:1;fill-rule:nonzero;stroke:none"
           d="m 403.26,170.9 c 0,6.94 -5.62,12.56 -12.56,12.56 -6.94,0 -12.56,-5.62 -12.56,-12.56 0,-6.94 5.62,-12.56 12.56,-12.56 6.94,0 12.56,5.62 12.56,12.56" /></g><g
         id="g220"><path
           id="path222"
           style="fill:#ff9900;fill-opacity:1;fill-rule:nonzero;stroke:#ed8e00;stroke-width:0.75;stroke-linecap:butt;stroke-linejoin:miter;stroke-miterlimit:10;stroke-dasharray:none;stroke-opacity:1"
           d="m 28.85,142.45 c 0,4.31 -3.49,7.8 -7.8,7.8 -4.31,0 -7.8,-3.49 -7.8,-7.8 0,-4.31 3.49,-7.8 7.8,-7.8 4.31,0 7.8,3.49 7.8,7.8" /></g><g
         id="g224"><path
           id="path226"
           style="fill:#d06a00;fill-opacity:1;fill-rule:nonzero;stroke:none"
           d="m 28.85,142.45 c 0,4.31 -3.49,7.8 -7.8,7.8 -4.31,0 -7.8,-3.49 -7.8,-7.8 0,-4.31 3.49,-7.8 7.8,-7.8 4.31,0 7.8,3.49 7.8,7.8" /></g><g
         id="g228"><path
           id="path230"
           style="fill:#ff9900;fill-opacity:1;fill-rule:nonzero;stroke:#ed8e00;stroke-width:0.75;stroke-linecap:butt;stroke-linejoin:miter;stroke-miterlimit:10;stroke-dasharray:none;stroke-opacity:1"
           d="m 278.87,194.05 c 0,4.98 -4.04,9.02 -9.02,9.02 -4.98,0 -9.02,-4.04 -9.02,-9.02 0,-4.98 4.04,-9.02 9.02,-9.02 4.98,0 9.02,4.04 9.02,9.02" /></g><g
         id="g232"><path
           id="path234"
           style="fill:#c25c00;fill-opacity:1;fill-rule:nonzero;stroke:none"
           d="m 278.87,194.05 c 0,4.98 -4.04,9.02 -9.02,9.02 -4.98,0 -9.02,-4.04 -9.02,-9.02 0,-4.98 4.04,-9.02 9.02,-9.02 4.98,0 9.02,4.04 9.02,9.02" /></g><g
         id="g236"><path
           id="path238"
           style="fill:#ff9900;fill-opacity:1;fill-rule:nonzero;stroke:#ed8e00;stroke-width:0.75;stroke-linecap:butt;stroke-linejoin:miter;stroke-miterlimit:10;stroke-dasharray:none;stroke-opacity:1"
           d="m 70.38,373.2 c 0,3.91 -3.17,7.08 -7.08,7.08 -3.91,0 -7.08,-3.17 -7.08,-7.08 0,-3.91 3.17,-7.08 7.08,-7.08 3.91,0 7.08,3.17 7.08,7.08" /></g><g
         id="g240"><path
           id="path242"
           style="fill:#d87200;fill-opacity:1;fill-rule:nonzero;stroke:none"
           d="m 70.38,373.2 c 0,3.91 -3.17,7.08 -7.08,7.08 -3.91,0 -7.08,-3.17 -7.08,-7.08 0,-3.91 3.17,-7.08 7.08,-7.08 3.91,0 7.08,3.17 7.08,7.08" /></g><g
         id="g244"><path
           id="path246"
           style="fill:#ff9900;fill-opacity:1;fill-rule:nonzero;stroke:#ed8e00;stroke-width:0.75;stroke-linecap:butt;stroke-linejoin:miter;stroke-miterlimit:10;stroke-dasharray:none;stroke-opacity:1"
           d="m 209.02,218.1 c 0,3.96 -3.21,7.17 -7.17,7.17 -3.96,0 -7.17,-3.21 -7.17,-7.17 0,-3.96 3.21,-7.17 7.17,-7.17 3.96,0 7.17,3.21 7.17,7.17" /></g><g
         id="g248"><path
           id="path250"
           style="fill:#d56f00;fill-opacity:1;fill-rule:nonzero;stroke:none"
           d="m 209.02,218.1 c 0,3.96 -3.21,7.17 -7.17,7.17 -3.96,0 -7.17,-3.21 -7.17,-7.17 0,-3.96 3.21,-7.17 7.17,-7.17 3.96,0 7.17,3.21 7.17,7.17" /></g><g
         id="g252"><path
           id="path254"
           style="fill:#ff9900;fill-opacity:1;fill-rule:nonzero;stroke:#ed8e00;stroke-width:0.75;stroke-linecap:butt;stroke-linejoin:miter;stroke-miterlimit:10;stroke-dasharray:none;stroke-opacity:1"
           d="m 326.69,281.55 c 0,3.31 -2.68,5.99 -5.99,5.99 -3.31,0 -5.99,-2.68 -5.99,-5.99 0,-3.31 2.68,-5.99 5.99,-5.99 3.31,0 5.99,2.68 5.99,5.99" /></g><g
         id="g256"><path
           id="path258"
           style="fill:#e17b00;fill-opacity:1;fill-rule:nonzero;stroke:none"
           d="m 326.69,281.55 c 0,3.31 -2.68,5.99 -5.99,5.99 -3.31,0 -5.99,-2.68 -5.99,-5.99 0,-3.31 2.68,-5.99 5.99,-5.99 3.31,0 5.99,2.68 5.99,5.99" /></g><g
         id="g260"><path
           id="path262"
           style="fill:#ff9900;fill-opacity:1;fill-rule:nonzero;stroke:#ed8e00;stroke-width:0.75;stroke-linecap:butt;stroke-linejoin:miter;stroke-miterlimit:10;stroke-dasharray:none;stroke-opacity:1"
           d="m 232.71,131.75 c 0,4.59 -3.72,8.31 -8.31,8.31 -4.59,0 -8.31,-3.72 -8.31,-8.31 0,-4.59 3.72,-8.31 8.31,-8.31 4.59,0 8.31,3.72 8.31,8.31" /></g><g
         id="g264"><path
           id="path266"
           style="fill:#cc6600;fill-opacity:1;fill-rule:nonzero;stroke:none"
           d="m 232.71,131.75 c 0,4.59 -3.72,8.31 -8.31,8.31 -4.59,0 -8.31,-3.72 -8.31,-8.31 0,-4.59 3.72,-8.31 8.31,-8.31 4.59,0 8.31,3.72 8.31,8.31" /></g><g
         id="g268"><path
           id="path270"
           style="fill:#ff9900;fill-opacity:1;fill-rule:nonzero;stroke:#ed8e00;stroke-width:0.75;stroke-linecap:butt;stroke-linejoin:miter;stroke-miterlimit:10;stroke-dasharray:none;stroke-opacity:1"
           d="m 367.95,256.4 c 0,3.56 -2.89,6.45 -6.45,6.45 -3.56,0 -6.45,-2.89 -6.45,-6.45 0,-3.56 2.89,-6.45 6.45,-6.45 3.56,0 6.45,2.89 6.45,6.45" /></g><g
         id="g272"><path
           id="path274"
           style="fill:#dd7700;fill-opacity:1;fill-rule:nonzero;stroke:none"
           d="m 367.95,256.4 c 0,3.56 -2.89,6.45 -6.45,6.45 -3.56,0 -6.45,-2.89 -6.45,-6.45 0,-3.56 2.89,-6.45 6.45,-6.45 3.56,0 6.45,2.89 6.45,6.45" /></g><g
         id="g276"><path
           id="path278"
           style="fill:#ff9900;fill-opacity:1;fill-rule:nonzero;stroke:#ed8e00;stroke-width:0.75;stroke-linecap:butt;stroke-linejoin:miter;stroke-miterlimit:10;stroke-dasharray:none;stroke-opacity:1"
           d="m 123.65,243.55 c 0,3.81 -3.09,6.9 -6.9,6.9 -3.81,0 -6.9,-3.09 -6.9,-6.9 0,-3.81 3.09,-6.9 6.9,-6.9 3.81,0 6.9,3.09 6.9,6.9" /></g><g
         id="g280"><path
           id="path282"
           style="fill:#da7400;fill-opacity:1;fill-rule:nonzero;stroke:none"
           d="m 123.65,243.55 c 0,3.81 -3.09,6.9 -6.9,6.9 -3.81,0 -6.9,-3.09 -6.9,-6.9 0,-3.81 3.09,-6.9 6.9,-6.9 3.81,0 6.9,3.09 6.9,6.9" /></g><g
         id="g284"><path
           id="path286"
           style="fill:#ff9900;fill-opacity:1;fill-rule:nonzero;stroke:#ed8e00;stroke-width:0.75;stroke-linecap:butt;stroke-linejoin:miter;stroke-miterlimit:10;stroke-dasharray:none;stroke-opacity:1"
           d="m 244.79,28.35 c 0,3.75 -3.04,6.79 -6.79,6.79 -3.75,0 -6.79,-3.04 -6.79,-6.79 0,-3.75 3.04,-6.79 6.79,-6.79 3.75,0 6.79,3.04 6.79,6.79" /></g><g
         id="g288"><path
           id="path290"
           style="fill:#da7400;fill-opacity:1;fill-rule:nonzero;stroke:none"
           d="m 244.79,28.35 c 0,3.75 -3.04,6.79 -6.79,6.79 -3.75,0 -6.79,-3.04 -6.79,-6.79 0,-3.75 3.04,-6.79 6.79,-6.79 3.75,0 6.79,3.04 6.79,6.79" /></g><g
         id="g292"><path
           id="path294"
           style="fill:#ff9900;fill-opacity:1;fill-rule:nonzero;stroke:#ed8e00;stroke-width:0.75;stroke-linecap:butt;stroke-linejoin:miter;stroke-miterlimit:10;stroke-dasharray:none;stroke-opacity:1"
           d="m 34.2,331.65 c 0,3.64 -2.96,6.6 -6.6,6.6 -3.64,0 -6.6,-2.96 -6.6,-6.6 0,-3.64 2.96,-6.6 6.6,-6.6 3.64,0 6.6,2.96 6.6,6.6" /></g><g
         id="g296"><path
           id="path298"
           style="fill:#dd7700;fill-opacity:1;fill-rule:nonzero;stroke:none"
           d="m 34.2,331.65 c 0,3.64 -2.96,6.6 -6.6,6.6 -3.64,0 -6.6,-2.96 -6.6,-6.6 0,-3.64 2.96,-6.6 6.6,-6.6 3.64,0 6.6,2.96 6.6,6.6" /></g><g
         id="g300"><path
           id="path302"
           style="fill:#ff9900;fill-opacity:1;fill-rule:nonzero;stroke:#ed8e00;stroke-width:0.75;stroke-linecap:butt;stroke-linejoin:miter;stroke-miterlimit:10;stroke-dasharray:none;stroke-opacity:1"
           d="m 104.15,414.9 c 0,4.28 -3.47,7.75 -7.75,7.75 -4.28,0 -7.75,-3.47 -7.75,-7.75 0,-4.28 3.47,-7.75 7.75,-7.75 4.28,0 7.75,3.47 7.75,7.75" /></g><g
         id="g304"><path
           id="path306"
           style="fill:#d06a00;fill-opacity:1;fill-rule:nonzero;stroke:none"
           d="m 104.15,414.9 c 0,4.28 -3.47,7.75 -7.75,7.75 -4.28,0 -7.75,-3.47 -7.75,-7.75 0,-4.28 3.47,-7.75 7.75,-7.75 4.28,0 7.75,3.47 7.75,7.75" /></g><g
         id="g308"><path
           id="path310"
           style="fill:#ff9900;fill-opacity:1;fill-rule:nonzero;stroke:#ed8e00;stroke-width:0.75;stroke-linecap:butt;stroke-linejoin:miter;stroke-miterlimit:10;stroke-dasharray:none;stroke-opacity:1"
           d="m 342.73,371.35 c 0,3.41 -2.77,6.18 -6.18,6.18 -3.41,0 -6.18,-2.77 -6.18,-6.18 0,-3.41 2.77,-6.18 6.18,-6.18 3.41,0 6.18,2.77 6.18,6.18" /></g><g
         id="g312"><path
           id="path314"
           style="fill:#e17b00;fill-opacity:1;fill-rule:nonzero;stroke:none"
           d="m 342.73,371.35 c 0,3.41 -2.77,6.18 -6.18,6.18 -3.41,0 -6.18,-2.77 -6.18,-6.18 0,-3.41 2.77,-6.18 6.18,-6.18 3.41,0 6.18,2.77 6.18,6.18" /></g><g
         id="g316"><path
           id="path318"
           style="fill:#ff9900;fill-opacity:1;fill-rule:nonzero;stroke:#ed8e00;stroke-width:0.75;stroke-linecap:butt;stroke-linejoin:miter;stroke-miterlimit:10;stroke-dasharray:none;stroke-opacity:1"
           d="m 19.23,211.05 c 0,3.36 -2.72,6.08 -6.08,6.08 -3.36,0 -6.08,-2.72 -6.08,-6.08 0,-3.36 2.72,-6.08 6.08,-6.08 3.36,0 6.08,2.72 6.08,6.08" /></g><g
         id="g320"><path
           id="path322"
           style="fill:#e17b00;fill-opacity:1;fill-rule:nonzero;stroke:none"
           d="m 19.23,211.05 c 0,3.36 -2.72,6.08 -6.08,6.08 -3.36,0 -6.08,-2.72 -6.08,-6.08 0,-3.36 2.72,-6.08 6.08,-6.08 3.36,0 6.08,2.72 6.08,6.08" /></g><g
         id="g324"><path
           id="path326"
           style="fill:#ff9900;fill-opacity:1;fill-rule:nonzero;stroke:#ed8e00;stroke-width:0.75;stroke-linecap:butt;stroke-linejoin:miter;stroke-miterlimit:10;stroke-dasharray:none;stroke-opacity:1"
           d="m 219.1,458.45 c 0,3.12 -2.53,5.65 -5.65,5.65 -3.12,0 -5.65,-2.53 -5.65,-5.65 0,-3.12 2.53,-5.65 5.65,-5.65 3.12,0 5.65,2.53 5.65,5.65" /></g><g
         id="g328"><path
           id="path330"
           style="fill:#e68000;fill-opacity:1;fill-rule:nonzero;stroke:none"
           d="m 219.1,458.45 c 0,3.12 -2.53,5.65 -5.65,5.65 -3.12,0 -5.65,-2.53 -5.65,-5.65 0,-3.12 2.53,-5.65 5.65,-5.65 3.12,0 5.65,2.53 5.65,5.65" /></g><g
         id="g332"><path
           id="path334"
           style="fill:#ff9900;fill-opacity:1;fill-rule:nonzero;stroke:#ed8e00;stroke-width:0.75;stroke-linecap:butt;stroke-linejoin:miter;stroke-miterlimit:10;stroke-dasharray:none;stroke-opacity:1"
           d="m 51.8,270.85 c 0,3.12 -2.53,5.65 -5.65,5.65 -3.12,0 -5.65,-2.53 -5.65,-5.65 0,-3.12 2.53,-5.65 5.65,-5.65 3.12,0 5.65,2.53 5.65,5.65" /></g><g
         id="g336"><path
           id="path338"
           style="fill:#e68000;fill-opacity:1;fill-rule:nonzero;stroke:none"
           d="m 51.8,270.85 c 0,3.12 -2.53,5.65 -5.65,5.65 -3.12,0 -5.65,-2.53 -5.65,-5.65 0,-3.12 2.53,-5.65 5.65,-5.65 3.12,0 5.65,2.53 5.65,5.65" /></g><g
         id="g340"><path
           id="path342"
           style="fill:#ff9900;fill-opacity:1;fill-rule:nonzero;stroke:#ed8e00;stroke-width:0.75;stroke-linecap:butt;stroke-linejoin:miter;stroke-miterlimit:10;stroke-dasharray:none;stroke-opacity:1"
           d="m 258.05,444 c 0,4.09 -3.31,7.4 -7.4,7.4 -4.09,0 -7.4,-3.31 -7.4,-7.4 0,-4.09 3.31,-7.4 7.4,-7.4 4.09,0 7.4,3.31 7.4,7.4" /></g><g
         id="g344"><path
           id="path346"
           style="fill:#d36d00;fill-opacity:1;fill-rule:nonzero;stroke:none"
           d="m 258.05,444 c 0,4.09 -3.31,7.4 -7.4,7.4 -4.09,0 -7.4,-3.31 -7.4,-7.4 0,-4.09 3.31,-7.4 7.4,-7.4 4.09,0 7.4,3.31 7.4,7.4" /></g><g
         id="g348"><path
           id="path350"
           style="fill:#ff9900;fill-opacity:1;fill-rule:nonzero;stroke:#ed8e00;stroke-width:0.75;stroke-linecap:butt;stroke-linejoin:miter;stroke-miterlimit:10;stroke-dasharray:none;stroke-opacity:1"
           d="m 301.73,426.45 c 0,3.05 -2.48,5.53 -5.53,5.53 -3.05,0 -5.53,-2.48 -5.53,-5.53 0,-3.05 2.48,-5.53 5.53,-5.53 3.05,0 5.53,2.48 5.53,5.53" /></g><g
         id="g352"><path
           id="path354"
           style="fill:#e68000;fill-opacity:1;fill-rule:nonzero;stroke:none"
           d="m 301.73,426.45 c 0,3.05 -2.48,5.53 -5.53,5.53 -3.05,0 -5.53,-2.48 -5.53,-5.53 0,-3.05 2.48,-5.53 5.53,-5.53 3.05,0 5.53,2.48 5.53,5.53" /></g><g
         id="g356"><path
           id="path358"
           style="fill:#ff9900;fill-opacity:1;fill-rule:nonzero;stroke:#ed8e00;stroke-width:0.75;stroke-linecap:butt;stroke-linejoin:miter;stroke-miterlimit:10;stroke-dasharray:none;stroke-opacity:1"
           d="m 120.9,156.15 c 0,3.23 -2.62,5.85 -5.85,5.85 -3.23,0 -5.85,-2.62 -5.85,-5.85 0,-3.23 2.62,-5.85 5.85,-5.85 3.23,0 5.85,2.62 5.85,5.85" /></g><g
         id="g360"><path
           id="path362"
           style="fill:#e47e00;fill-opacity:1;fill-rule:nonzero;stroke:none"
           d="m 120.9,156.15 c 0,3.23 -2.62,5.85 -5.85,5.85 -3.23,0 -5.85,-2.62 -5.85,-5.85 0,-3.23 2.62,-5.85 5.85,-5.85 3.23,0 5.85,2.62 5.85,5.85" /></g><g
         id="g364"><path
           id="path366"
           style="fill:#ff9900;fill-opacity:1;fill-rule:nonzero;stroke:#ed8e00;stroke-width:0.75;stroke-linecap:butt;stroke-linejoin:miter;stroke-miterlimit:10;stroke-dasharray:none;stroke-opacity:1"
           d="m 347.65,324.5 c 0,2.98 -2.42,5.4 -5.4,5.4 -2.98,0 -5.4,-2.42 -5.4,-5.4 0,-2.98 2.42,-5.4 5.4,-5.4 2.98,0 5.4,2.42 5.4,5.4" /></g><g
         id="g368"><path
           id="path370"
           style="fill:#e98300;fill-opacity:1;fill-rule:nonzero;stroke:none"
           d="m 347.65,324.5 c 0,2.98 -2.42,5.4 -5.4,5.4 -2.98,0 -5.4,-2.42 -5.4,-5.4 0,-2.98 2.42,-5.4 5.4,-5.4 2.98,0 5.4,2.42 5.4,5.4" /></g><g
         id="g372"><path
           id="path374"
           style="fill:#ff9900;fill-opacity:1;fill-rule:nonzero;stroke:#ed8e00;stroke-width:0.75;stroke-linecap:butt;stroke-linejoin:miter;stroke-miterlimit:10;stroke-dasharray:none;stroke-opacity:1"
           d="m 38.64,188.75 c 0,3.2 -2.59,5.79 -5.79,5.79 -3.2,0 -5.79,-2.59 -5.79,-5.79 0,-3.2 2.59,-5.79 5.79,-5.79 3.2,0 5.79,2.59 5.79,5.79" /></g><g
         id="g376"><path
           id="path378"
           style="fill:#e47e00;fill-opacity:1;fill-rule:nonzero;stroke:none"
           d="m 38.64,188.75 c 0,3.2 -2.59,5.79 -5.79,5.79 -3.2,0 -5.79,-2.59 -5.79,-5.79 0,-3.2 2.59,-5.79 5.79,-5.79 3.2,0 5.79,2.59 5.79,5.79" /></g><g
         id="g380"><path
           id="path382"
           style="fill:#ff9900;fill-opacity:1;fill-rule:nonzero;stroke:#ed8e00;stroke-width:0.75;stroke-linecap:butt;stroke-linejoin:miter;stroke-miterlimit:10;stroke-dasharray:none;stroke-opacity:1"
           d="m 337.89,401.9 c 0,2.98 -2.41,5.39 -5.39,5.39 -2.98,0 -5.39,-2.41 -5.39,-5.39 0,-2.98 2.41,-5.39 5.39,-5.39 2.98,0 5.39,2.41 5.39,5.39" /></g><g
         id="g384"><path
           id="path386"
           style="fill:#e98300;fill-opacity:1;fill-rule:nonzero;stroke:none"
           d="m 337.89,401.9 c 0,2.98 -2.41,5.39 -5.39,5.39 -2.98,0 -5.39,-2.41 -5.39,-5.39 0,-2.98 2.41,-5.39 5.39,-5.39 2.98,0 5.39,2.41 5.39,5.39" /></g><g
         id="g388"><path
           id="path390"
           style="fill:#ff9900;fill-opacity:1;fill-rule:nonzero;stroke:#ed8e00;stroke-width:0.75;stroke-linecap:butt;stroke-linejoin:miter;stroke-miterlimit:10;stroke-dasharray:none;stroke-opacity:1"
           d="m 283.15,68.05 c 0,2.76 -2.24,5 -5,5 -2.76,0 -5,-2.24 -5,-5 0,-2.76 2.24,-5 5,-5 2.76,0 5,2.24 5,5" /></g><g
         id="g392"><path
           id="path394"
           style="fill:#ee8800;fill-opacity:1;fill-rule:nonzero;stroke:none"
           d="m 283.15,68.05 c 0,2.76 -2.24,5 -5,5 -2.76,0 -5,-2.24 -5,-5 0,-2.76 2.24,-5 5,-5 2.76,0 5,2.24 5,5" /></g><g
         transform="matrix(1,0,0,-1,0,508)"
         id="g396"><g
           id="g398"><text
             id="text402"
             style="font-variant:normal;font-weight:normal;font-size:15px;font-family:LucidaSansUnicode;-inkscape-font-specification:LucidaSansUnicode;writing-mode:lr-tb;fill:#000000;fill-opacity:1;fill-rule:nonzero;stroke:none"
             transform="matrix(1,0,0,-1,210.45,151.9)"><tspan
               id="tspan400"
               y="0"
               x="0 8.2799997 17.58 25.860001 30.195 34.529999 42.165001 47.775002 56.055 64.724998 73.004997 87 96.434998 100.77 109.125 118.425 124.035 132.315">analista-ambiental</tspan></text>
</g><g
           id="g404"><text
             id="text408"
             style="font-variant:normal;font-weight:normal;font-size:15px;font-family:LucidaSansUnicode;-inkscape-font-specification:LucidaSansUnicode;writing-mode:lr-tb;fill:#000000;fill-opacity:1;fill-rule:nonzero;stroke:none"
             transform="matrix(1,0,0,-1,122,396.95)"><tspan
               id="tspan406"
               y="0"
               x="0 8.3549995 17.655001 27 35.355 44.654999 53.955002 62.310001 66.644997 72.779999 81.989998 90.660004 98.940002 112.935 122.37 126.705 135.06 144.36 149.97 158.25">engenheiro-ambiental</tspan></text>
</g><g
           id="g410"><text
             id="text414"
             style="font-variant:normal;font-weight:normal;font-size:14px;font-family:LucidaSansUnicode;-inkscape-font-specification:LucidaSansUnicode;writing-mode:lr-tb;fill:#000000;fill-opacity:1;fill-rule:nonzero;stroke:none"
             transform="matrix(1,0,0,-1,390.7,310.55)"><tspan
               id="tspan412"
               y="0"
               x="0 5.2360001 13.034 20.202 28.882 32.928001 40.096001 48.692001 56.784 64.582001 77.643997 85.736 98.797997 106.596 110.642 119.238 127.33 135.058 148.12 156.92599 160.972 168.77 177.45 182.686">tecnico-em-meio-ambiente</tspan></text>
</g><g
           id="g416"><text
             id="text420"
             style="font-variant:normal;font-weight:normal;font-size:14px;font-family:LucidaSansUnicode;-inkscape-font-specification:LucidaSansUnicode;writing-mode:lr-tb;fill:#000000;fill-opacity:1;fill-rule:nonzero;stroke:none"
             transform="matrix(1,0,0,-1,21.05,343.75)"><tspan
               id="tspan418"
               y="0"
               x="0 8.8059998 14.532 23.128 28.266001 36.063999 43.189999 50.316002 58.911999 64.638">professora</tspan></text>
</g><g
           id="g422"><text
             id="text426"
             style="font-variant:normal;font-weight:normal;font-size:14px;font-family:LucidaSansUnicode;-inkscape-font-specification:LucidaSansUnicode;writing-mode:lr-tb;fill:#000000;fill-opacity:1;fill-rule:nonzero;stroke:none"
             transform="matrix(1,0,0,-1,269.85,290.95)"><tspan
               id="tspan424"
               y="0"
               x="0 7.1680002 15.764 24.444 31.57 40.25 44.296001 49.532001 58.127998 63.854 71.945999 79.674004 92.736 101.542 105.588 113.386 122.066 127.302 135.03">consultor-ambiental</tspan></text>
</g><g
           id="g428"><text
             id="text432"
             style="font-variant:normal;font-weight:normal;font-size:14px;font-family:LucidaSansUnicode;-inkscape-font-specification:LucidaSansUnicode;writing-mode:lr-tb;fill:#000000;fill-opacity:1;fill-rule:nonzero;stroke:none"
             transform="matrix(1,0,0,-1,63.3,113.75)"><tspan
               id="tspan430"
               y="0"
               x="0 7.7979999 16.478001 25.200001 32.998001 41.678001 50.358002 58.155998 62.202 67.928001 76.524002 84.615997 93.421997 101.22 109.312 116.438 124.236 132.95799 141.638 147.364 155.092 163.772 170.94 178.668 186.75999 195.56599 204.162 212.254 217.49001 223.216 230.944 239.75 247.478 251.524 260.20401">engenheiro-de-seguranca-do-trabalho</tspan></text>
</g><g
           id="g434"><text
             id="text438"
             style="font-variant:normal;font-weight:normal;font-size:14px;font-family:LucidaSansUnicode;-inkscape-font-specification:LucidaSansUnicode;writing-mode:lr-tb;fill:#000000;fill-opacity:1;fill-rule:nonzero;stroke:none"
             transform="matrix(1,0,0,-1,201.85,268.75)"><tspan
               id="tspan436"
               y="0"
               x="0 7.7979999 14.924 20.16 27.888 36.610001 40.655998 48.383999 54.110001 58.155998 66.751999 74.844002 83.650002 91.447998 99.540001 107.338 116.018 124.74 132.53799 141.218 149.89799 157.62601 163.35201 167.39799 175.12601 183.218 190.946 204.008 212.814 216.86 224.658 233.338 238.57401 246.302">estagiario-de-engenharia-ambiental</tspan></text>
</g><g
           id="g440"><text
             id="text444"
             style="font-variant:normal;font-weight:normal;font-size:14px;font-family:LucidaSansUnicode;-inkscape-font-specification:LucidaSansUnicode;writing-mode:lr-tb;fill:#000000;fill-opacity:1;fill-rule:nonzero;stroke:none"
             transform="matrix(1,0,0,-1,320.7,206.5)"><tspan
               id="tspan442"
               y="0"
               x="0 7.7280002 16.408001 24.99 29.035999 33.082001 37.127998 44.855999 50.582001 58.674 66.402 75.208 88.269997 92.316002 100.996 105.042 112.168 117.404 123.13 130.858 136.09399 140.14 147.37801">auxiliar-administrativo</tspan></text>
</g><g
           id="g446"><text
             id="text450"
             style="font-variant:normal;font-weight:normal;font-size:14px;font-family:LucidaSansUnicode;-inkscape-font-specification:LucidaSansUnicode;writing-mode:lr-tb;fill:#000000;fill-opacity:1;fill-rule:nonzero;stroke:none"
             transform="matrix(1,0,0,-1,224.4,353.95)"><tspan
               id="tspan448"
               y="0"
               x="0 7.1680002 15.764 24.360001 30.086 38.891998 46.689999 55.369999 63.098 71.903999 80.5 86.225998 94.318001 103.124 110.922 119.014 132.076 139.87399 143.92 152.51601 160.608 168.336 181.39799 190.20399 194.25 202.048 210.728 215.964">coordenador-de-meio-ambiente</tspan></text>
</g><g
           id="g452"><text
             id="text456"
             style="font-variant:normal;font-weight:normal;font-size:14px;font-family:LucidaSansUnicode;-inkscape-font-specification:LucidaSansUnicode;writing-mode:lr-tb;fill:#000000;fill-opacity:1;fill-rule:nonzero;stroke:none"
             transform="matrix(1,0,0,-1,361.5,231.2)"><tspan
               id="tspan454"
               y="0"
               x="0 7.7280002 14.854 21.98 26.025999 33.152 38.388 46.186001 54.866001 60.102001 67.900002 75.991997 83.720001 92.526001 105.588 109.634 118.314 122.36 129.48599 134.722 140.448 148.17599 153.412 157.45799 164.696">assistente-administrativo</tspan></text>
</g><g
           id="g458"><text
             id="text462"
             style="font-variant:normal;font-weight:normal;font-size:14px;font-family:LucidaSansUnicode;-inkscape-font-specification:LucidaSansUnicode;writing-mode:lr-tb;fill:#000000;fill-opacity:1;fill-rule:nonzero;stroke:none"
             transform="matrix(1,0,0,-1,116.75,243.55)"><tspan
               id="tspan460"
               y="0"
               x="0 5.2360001 13.034 20.202 28.882 32.928001 40.096001 48.692001 56.784 64.582001 77.643997 85.736 92.862 100.66 109.382 118.062 123.788 131.51601 140.196 147.364 155.092 163.18401 171.99001 180.586 188.67799 193.914 199.64 207.368 216.174 223.90199 227.948 236.62801">tecnico-em-seguranca-do-trabalho</tspan></text>
</g><g
           id="g464"><text
             id="text468"
             style="font-variant:normal;font-weight:normal;font-size:14px;font-family:LucidaSansUnicode;-inkscape-font-specification:LucidaSansUnicode;writing-mode:lr-tb;fill:#000000;fill-opacity:1;fill-rule:nonzero;stroke:none"
             transform="matrix(1,0,0,-1,238,458.9)"><tspan
               id="tspan466"
               y="0"
               x="0 7.7979999 16.478001 25.200001 32.998001 41.678001 50.358002 58.155998 62.202 67.928001 76.524002 84.615997 93.421997 101.22 109.312 116.438 124.236 132.95799 141.638 147.364 155.092 163.772 170.94 178.668 186.75999 195.56599 204.162 212.254 217.49001 223.216 230.944 239.75 247.478 251.524 260.20401 268.79999 276.892 284.69 292.78201 305.84399 313.642 317.68799 326.284 334.37601 342.104 355.16599 363.97198 368.01801 375.81601 384.496 389.73199">engenheiro-de-seguranca-do-trabalho-e-meio-ambiente</tspan></text>
</g><g
           id="g470"><text
             id="text474"
             style="font-variant:normal;font-weight:normal;font-size:14px;font-family:LucidaSansUnicode;-inkscape-font-specification:LucidaSansUnicode;writing-mode:lr-tb;fill:#000000;fill-opacity:1;fill-rule:nonzero;stroke:none"
             transform="matrix(1,0,0,-1,27.6,155.8)"><tspan
               id="tspan472"
               y="0"
               x="0 7.1259999 15.806 24.612 32.41 38.136002 45.374001 49.419998 56.546001 65.141998 70.867996 78.959999 86.688004 99.75 108.556 112.602 120.4 129.08 134.31599 142.04401">supervisor-ambiental</tspan></text>
</g><g
           id="g476"><text
             id="text480"
             style="font-variant:normal;font-weight:normal;font-size:14px;font-family:LucidaSansUnicode;-inkscape-font-specification:LucidaSansUnicode;writing-mode:lr-tb;fill:#000000;fill-opacity:1;fill-rule:nonzero;stroke:none"
             transform="matrix(1,0,0,-1,96.4,71.4)"><tspan
               id="tspan478"
               y="0"
               x="0 8.7220001 16.52 23.646 28.882 37.478001 43.203999 51.296001 59.023998 72.085999 80.891998 84.938004 92.736 101.416 106.652 114.38">gestor-ambiental</tspan></text>
</g><g
           id="g482"><text
             id="text486"
             style="font-variant:normal;font-weight:normal;font-size:14px;font-family:LucidaSansUnicode;-inkscape-font-specification:LucidaSansUnicode;writing-mode:lr-tb;fill:#000000;fill-opacity:1;fill-rule:nonzero;stroke:none"
             transform="matrix(1,0,0,-1,336.55,116.5)"><tspan
               id="tspan484"
               y="0"
               x="0 7.1680002 15.764 24.360001 30.086 38.891998 46.689999 55.369999 63.098 71.903999 80.5 86.225998 94.318001 103.124 110.922 119.014 127.82 133.54601 142.142 146.39799 154.196 159.43201 168.028">coordenador-de-projetos</tspan></text>
</g><g
           id="g488"><text
             id="text492"
             style="font-variant:normal;font-weight:normal;font-size:14px;font-family:LucidaSansUnicode;-inkscape-font-specification:LucidaSansUnicode;writing-mode:lr-tb;fill:#000000;fill-opacity:1;fill-rule:nonzero;stroke:none"
             transform="matrix(1,0,0,-1,13.15,276.9)"><tspan
               id="tspan490"
               y="0"
               x="0 8.8059998 16.604 23.73 32.535999 41.216 45.262001 52.388 60.116001 68.921997 77.517998">pesquisador</tspan></text>
</g><g
           id="g494"><text
             id="text498"
             style="font-variant:normal;font-weight:normal;font-size:14px;font-family:LucidaSansUnicode;-inkscape-font-specification:LucidaSansUnicode;writing-mode:lr-tb;fill:#000000;fill-opacity:1;fill-rule:nonzero;stroke:none"
             transform="matrix(1,0,0,-1,213.45,29.95)"><tspan
               id="tspan496"
               y="0"
               x="0 7.7979999 16.478001 25.200001 32.998001 41.678001 50.358002 58.155998 62.202 67.928001 76.524002 84.615997 92.344002 101.066 106.792 115.388 124.068 132.664 145.726">engenheiro-agronomo</tspan></text>
</g><g
           id="g500"><text
             id="text504"
             style="font-variant:normal;font-weight:normal;font-size:14px;font-family:LucidaSansUnicode;-inkscape-font-specification:LucidaSansUnicode;writing-mode:lr-tb;fill:#000000;fill-opacity:1;fill-rule:nonzero;stroke:none"
             transform="matrix(1,0,0,-1,46.15,217.55)"><tspan
               id="tspan502"
               y="0"
               x="0 7.7979999 14.924 23.73 31.528 38.695999 42.742001 50.470001 54.515999 58.562 65.688004 70.924004 78.652 86.744003 94.542 107.604 115.696 128.758 136.556 140.60201 149.198 157.28999 165.01801 178.08 186.886 190.93201 198.73 207.41 212.646">especialista-em-meio-ambiente</tspan></text>
</g><g
           id="g506"><text
             id="text510"
             style="font-variant:normal;font-weight:normal;font-size:14px;font-family:LucidaSansUnicode;-inkscape-font-specification:LucidaSansUnicode;writing-mode:lr-tb;fill:#000000;fill-opacity:1;fill-rule:nonzero;stroke:none"
             transform="matrix(1,0,0,-1,250.65,42.6)"><tspan
               id="tspan508"
               y="0"
               x="0 7.7280002 14.854 21.98 26.025999 33.152 38.388 46.186001 54.866001 60.102001 67.900002 75.991997 83.720001 96.781998 105.588 109.634 117.432 126.112 131.34801 139.076">assistente-ambiental</tspan></text>
</g><g
           id="g512"><text
             id="text516"
             style="font-variant:normal;font-weight:normal;font-size:14px;font-family:LucidaSansUnicode;-inkscape-font-specification:LucidaSansUnicode;writing-mode:lr-tb;fill:#000000;fill-opacity:1;fill-rule:nonzero;stroke:none"
             transform="matrix(1,0,0,-1,296.2,62.05)"><tspan
               id="tspan514"
               y="0"
               x="0 7.7280002 16.408001 24.136 28.181999 32.228001 39.354 44.59 52.318001 60.41 69.216003 77.014 85.106003 93.828003 101.626 110.222 119.028 124.754 133.35001 140.51801 148.31599 155.442 162.56799 170.29601 183.358 191.15601 199.836 205.07201">analista-de-geoprocessamento</tspan></text>
</g><g
           id="g518"><text
             id="text522"
             style="font-variant:normal;font-weight:normal;font-size:14px;font-family:LucidaSansUnicode;-inkscape-font-specification:LucidaSansUnicode;writing-mode:lr-tb;fill:#000000;fill-opacity:1;fill-rule:nonzero;stroke:none"
             transform="matrix(1,0,0,-1,115.05,332)"><tspan
               id="tspan520"
               y="0"
               x="0 8.7220001 16.52 22.246 30.044001 38.723999 43.959999 51.757999 59.849998 68.655998 76.454002 84.545998 97.608002 105.406 109.452 118.048 126.14 133.868 146.92999 155.73599 159.782 167.58 176.25999 181.496">gerente-de-meio-ambiente</tspan></text>
</g><g
           id="g524"><text
             id="text528"
             style="font-variant:normal;font-weight:normal;font-size:14px;font-family:LucidaSansUnicode;-inkscape-font-specification:LucidaSansUnicode;writing-mode:lr-tb;fill:#000000;fill-opacity:1;fill-rule:nonzero;stroke:none"
             transform="matrix(1,0,0,-1,342.25,164.15)"><tspan
               id="tspan526"
               y="0"
               x="0 7.1680002 15.764 24.360001 30.086 38.891998 46.689999 55.369999 63.098 71.903999 80.5 86.225998 94.318001 99.554001 107.352 114.52 123.2 127.246 134.414">coordenador-tecnico</tspan></text>
</g><g
           id="g530"><text
             id="text534"
             style="font-variant:normal;font-weight:normal;font-size:14px;font-family:LucidaSansUnicode;-inkscape-font-specification:LucidaSansUnicode;writing-mode:lr-tb;fill:#000000;fill-opacity:1;fill-rule:nonzero;stroke:none"
             transform="matrix(1,0,0,-1,32.85,299.5)"><tspan
               id="tspan532"
               y="0"
               x="0 8.8059998 17.402 24.57 32.368 41.048 46.284">docente</tspan></text>
</g><g
           id="g536"><text
             id="text540"
             style="font-variant:normal;font-weight:normal;font-size:14px;font-family:LucidaSansUnicode;-inkscape-font-specification:LucidaSansUnicode;writing-mode:lr-tb;fill:#000000;fill-opacity:1;fill-rule:nonzero;stroke:none"
             transform="matrix(1,0,0,-1,332.5,86.75)"><tspan
               id="tspan538"
               y="0"
               x="0 7.7280002 16.408001 24.136 28.181999 32.228001 39.354 44.59 52.318001 60.41 69.216003 77.014 85.106003 93.912003 99.638 108.234 112.49 120.288 125.524 134.12">analista-de-projetos</tspan></text>
</g><g
           id="g542"><text
             id="text546"
             style="font-variant:normal;font-weight:normal;font-size:14px;font-family:LucidaSansUnicode;-inkscape-font-specification:LucidaSansUnicode;writing-mode:lr-tb;fill:#000000;fill-opacity:1;fill-rule:nonzero;stroke:none"
             transform="matrix(1,0,0,-1,278.15,421)"><tspan
               id="tspan544"
               y="0"
               x="0 7.7979999 16.478001 25.200001 32.998001 41.678001 50.358002 58.155998 62.202 67.928001 76.524002 84.615997 93.421997 101.22 109.312 116.438 129.5">engenheiro-de-sms</tspan></text>
</g></g></g></g></svg>