<?xml version="1.0" encoding="UTF-8" standalone="no"?>
<svg
   xmlns:dc="http://purl.org/dc/elements/1.1/"
   xmlns:cc="http://creativecommons.org/ns#"
   xmlns:rdf="http://www.w3.org/1999/02/22-rdf-syntax-ns#"
   xmlns:svg="http://www.w3.org/2000/svg"
   xmlns="http://www.w3.org/2000/svg"
   viewBox="0 0 782.66669 674.66669"
   height="674.66669"
   width="782.66669"
   xml:space="preserve"
   id="svg2"
   version="1.1"><metadata
     id="metadata8"><rdf:RDF><cc:Work
         rdf:about=""><dc:format>image/svg+xml</dc:format><dc:type
           rdf:resource="http://purl.org/dc/dcmitype/StillImage" /></cc:Work></rdf:RDF></metadata><defs
     id="defs6" /><g
     transform="matrix(1.3333333,0,0,-1.3333333,0,674.66667)"
     id="g10"><g
       id="g12" /><g
       transform="matrix(1,0,0,-1,-56.3,468.85)"
       id="g14"><g
         id="g16"><path
           id="path18"
           style="fill:#99ccff;fill-opacity:1;fill-rule:nonzero;stroke:none"
           d="m 334.37,206.85 c -27.53,-2.17 -50.75,-7.71 -69.64,-16.6 l 0.94,-1.77 -10.01,-2.46 7.67,6.88 0.93,-1.77 c 18.83,9.59 42.19,15.16 70.07,16.72" /></g><g
         id="g20"><path
           id="path22"
           style="fill:#96c9fc;fill-opacity:1;fill-rule:nonzero;stroke:none"
           d="m 207.73,300.43 c 7.86,35.75 20.55,65.63 38.08,89.64 l -1.7,1.16 7.88,6.98 -3.59,-9.9 -1.71,1.16 c -16.87,-24.18 -29.51,-53.95 -37.92,-89.3" /></g><g
         id="g24"><path
           id="path26"
           style="fill:#96c9fc;fill-opacity:1;fill-rule:nonzero;stroke:none"
           d="m 207.72,300.3 c -0.74,39.69 -5.74,75.3 -15,106.83 l -1.96,-0.64 -0.71,10.51 5.64,-8.9 -1.96,-0.64 c 9.95,-31.53 14.96,-67.25 15.05,-107.16" /></g><g
         id="g28"><path
           id="path30"
           style="fill:#94c7fa;fill-opacity:1;fill-rule:nonzero;stroke:none"
           d="M 208.75,300.03 C 189.05,260.9 175.07,223.39 166.84,187.5 l 2.09,-0.42 -4.71,-9.72 -0.6,10.79 2.1,-0.42 c 7.63,36.21 21.64,73.82 42.03,112.84" /></g><g
         id="g32"><path
           id="path34"
           style="fill:#94c7fa;fill-opacity:1;fill-rule:nonzero;stroke:none"
           d="m 207.98,299.8 c -38.55,19.29 -75.45,32.86 -110.7,40.72 l -0.41,-2.1 -9.75,4.64 10.78,0.68 -0.41,-2.1 c 35.58,-7.26 72.59,-20.87 111.03,-40.84" /></g><g
         id="g36"><path
           id="path38"
           style="fill:#94c7fa;fill-opacity:1;fill-rule:nonzero;stroke:none"
           d="m 207.85,300.7 c 31.84,33.25 65.1,58.82 99.77,76.72 l -1.03,1.88 10.47,2.66 -7.85,-7.41 -1.04,1.87 C 273.99,358.04 240.81,332.53 208.65,299.9" /></g><g
         id="g40"><path
           id="path42"
           style="fill:#94c7fa;fill-opacity:1;fill-rule:nonzero;stroke:none"
           d="m 208.75,300.57 c 19.81,-34.35 32.1,-67.65 36.85,-99.89 l 2.1,0.38 -0.81,-10.77 -4.52,9.81 2.1,0.38 c -5.35,31.91 -17.59,65.1 -36.72,99.55" /></g><g
         id="g44"><path
           id="path46"
           style="fill:#8fc3f6;fill-opacity:1;fill-rule:nonzero;stroke:none"
           d="m 208.25,299.69 c -40.62,-0.91 -77.02,-5.96 -109.2,-15.16 l 0.67,-2.1 -11.04,-0.58 9.32,5.95 0.68,-2.1 c 32.19,9.88 68.72,14.95 109.57,15.21" /></g><g
         id="g48"><path
           id="path50"
           style="fill:#8abff2;fill-opacity:1;fill-rule:nonzero;stroke:none"
           d="m 208.6,299.7 c -35.37,-21.69 -64.96,-44.71 -88.77,-69.04 l 1.74,-1.59 -9.77,-6.15 5.28,10.26 1.74,-1.59 c 23.48,24.94 53.18,48.05 89.08,69.31" /></g><g
         id="g52"><path
           id="path54"
           style="fill:#80b6e9;fill-opacity:1;fill-rule:nonzero;stroke:none"
           d="m 208.21,301.11 c 41.22,3.06 77.79,-0.32 109.73,-10.14 l 0.66,2.46 10.47,-6.29 -12.21,-0.19 0.66,2.46 c -31.86,9.12 -68.27,12.48 -109.23,10.08" /></g><g
         id="g56"><path
           id="path58"
           style="fill:#6fa7da;fill-opacity:1;fill-rule:nonzero;stroke:none"
           d="m 189.35,329.29 18.9,-28.99 -1.76,-1.14 -18.89,28.98 c -14.4,20.9 -31.18,39.7 -50.34,56.39 l -1.85,-2.23 -6.67,12.01 9.86,-8.17 c 19.82,-16.41 36.74,-35.37 50.75,-56.85" /></g><g
         id="g60"><path
           id="path62"
           style="fill:#5993c6;fill-opacity:1;fill-rule:nonzero;stroke:none"
           d="m 208.88,301.46 c 43.87,-22.11 79.78,-47.33 107.73,-75.65 l 2.23,2.37 6.96,-12.81 -13.23,6.13 2.23,2.37 c -28.19,27.66 -63.92,52.74 -107.18,75.27" /></g><g
         id="g64"><path
           id="path66"
           style="fill:#0e5083;fill-opacity:1;fill-rule:nonzero;stroke:none"
           d="M 447.51,120.26 C 471.47,89.27 486.43,60.18 492.4,33.02 l 4.12,1.25 -1.5,-17.87 -11.16,14.02 4.11,1.25 c -6.43,26.51 -21.18,55.16 -44.28,85.97" /></g><g
         id="g68"><path
           id="path70"
           style="fill:#04487b;fill-opacity:1;fill-rule:nonzero;stroke:none"
           d="m 138.6,386.14 -17.4,14.41 3.1,3.74 17.39,-14.41 c 20.71,-16.35 37.95,-35.66 51.73,-57.94 l 3.69,2.41 1.49,-19.25 -9.25,14.19 c -14.01,21.48 -30.93,40.44 -50.75,56.85" /></g><g
         id="g72"><path
           id="path74"
           style="fill:#004477;fill-opacity:1;fill-rule:nonzero;stroke:none"
           d="m 335.57,209.53 c 38.21,-18.84 67.29,-40.09 87.25,-63.76 l 3.2,3.13 6.98,-17.09 -16.94,7.34 3.19,3.12 c -20.07,22.87 -48.77,43.84 -86.12,62.9" /></g><g
         id="g76"><path
           id="path78"
           style="fill:#ff9900;fill-opacity:1;fill-rule:nonzero;stroke:#ed8e00;stroke-width:0.75;stroke-linecap:butt;stroke-linejoin:miter;stroke-miterlimit:10;stroke-dasharray:none;stroke-opacity:1"
           d="m 346.08,207.35 c 0,6.48 -5.25,11.73 -11.73,11.73 -6.48,0 -11.73,-5.25 -11.73,-11.73 0,-6.48 5.25,-11.73 11.73,-11.73 6.48,0 11.73,5.25 11.73,11.73" /></g><g
         id="g80"><path
           id="path82"
           style="fill:#942e00;fill-opacity:1;fill-rule:nonzero;stroke:none"
           d="m 346.08,207.35 c 0,6.48 -5.25,11.73 -11.73,11.73 -6.48,0 -11.73,-5.25 -11.73,-11.73 0,-6.48 5.25,-11.73 11.73,-11.73 6.48,0 11.73,5.25 11.73,11.73" /></g><g
         id="g84"><path
           id="path86"
           style="fill:#ff9900;fill-opacity:1;fill-rule:nonzero;stroke:#ed8e00;stroke-width:0.75;stroke-linecap:butt;stroke-linejoin:miter;stroke-miterlimit:10;stroke-dasharray:none;stroke-opacity:1"
           d="m 463.6,118.95 c 0,9.94 -8.06,18 -18,18 -9.94,0 -18,-8.06 -18,-18 0,-9.94 8.06,-18 18,-18 9.94,0 18,8.06 18,18" /></g><g
         id="g88"><path
           id="path90"
           style="fill:#660000;fill-opacity:1;fill-rule:nonzero;stroke:none"
           d="m 463.6,118.95 c 0,9.94 -8.06,18 -18,18 -9.94,0 -18,-8.06 -18,-18 0,-9.94 8.06,-18 18,-18 9.94,0 18,8.06 18,18" /></g><g
         id="g92"><path
           id="path94"
           style="fill:#ff9900;fill-opacity:1;fill-rule:nonzero;stroke:#ed8e00;stroke-width:0.75;stroke-linecap:butt;stroke-linejoin:miter;stroke-miterlimit:10;stroke-dasharray:none;stroke-opacity:1"
           d="m 130.99,400.55 c 0,5.41 -4.38,9.79 -9.79,9.79 -5.41,0 -9.79,-4.38 -9.79,-9.79 0,-5.41 4.38,-9.79 9.79,-9.79 5.41,0 9.79,4.38 9.79,9.79" /></g><g
         id="g96"><path
           id="path98"
           style="fill:#a23c00;fill-opacity:1;fill-rule:nonzero;stroke:none"
           d="m 130.99,400.55 c 0,5.41 -4.38,9.79 -9.79,9.79 -5.41,0 -9.79,-4.38 -9.79,-9.79 0,-5.41 4.38,-9.79 9.79,-9.79 5.41,0 9.79,4.38 9.79,9.79" /></g><g
         id="g100"><path
           id="path102"
           style="fill:#ff9900;fill-opacity:1;fill-rule:nonzero;stroke:#ed8e00;stroke-width:0.75;stroke-linecap:butt;stroke-linejoin:miter;stroke-miterlimit:10;stroke-dasharray:none;stroke-opacity:1"
           d="m 225.92,300.3 c 0,9.76 -7.91,17.67 -17.67,17.67 -9.76,0 -17.67,-7.91 -17.67,-17.67 0,-9.76 7.91,-17.67 17.67,-17.67 9.76,0 17.67,7.91 17.67,17.67" /></g><g
         id="g104"><path
           id="path106"
           style="fill:#680200;fill-opacity:1;fill-rule:nonzero;stroke:none"
           d="m 225.92,300.3 c 0,9.76 -7.91,17.67 -17.67,17.67 -9.76,0 -17.67,-7.91 -17.67,-17.67 0,-9.76 7.91,-17.67 17.67,-17.67 9.76,0 17.67,7.91 17.67,17.67" /></g><g
         id="g108"><path
           id="path110"
           style="fill:#ff9900;fill-opacity:1;fill-rule:nonzero;stroke:#ed8e00;stroke-width:0.75;stroke-linecap:butt;stroke-linejoin:miter;stroke-miterlimit:10;stroke-dasharray:none;stroke-opacity:1"
           d="m 517.14,0 c 0,9.46 -7.68,17.14 -17.14,17.14 -9.46,0 -17.14,-7.68 -17.14,-17.14 0,-9.46 7.68,-17.14 17.14,-17.14 9.46,0 17.14,7.68 17.14,17.14" /></g><g
         id="g112"><path
           id="path114"
           style="fill:#6d0700;fill-opacity:1;fill-rule:nonzero;stroke:none"
           d="m 517.14,0 c 0,9.46 -7.68,17.14 -17.14,17.14 -9.46,0 -17.14,-7.68 -17.14,-17.14 0,-9.46 7.68,-17.14 17.14,-17.14 9.46,0 17.14,7.68 17.14,17.14" /></g><g
         id="g116"><path
           id="path118"
           style="fill:#ff9900;fill-opacity:1;fill-rule:nonzero;stroke:#ed8e00;stroke-width:0.75;stroke-linecap:butt;stroke-linejoin:miter;stroke-miterlimit:10;stroke-dasharray:none;stroke-opacity:1"
           d="m 344.5,285.1 c 0,4.34 -3.51,7.85 -7.85,7.85 -4.34,0 -7.85,-3.51 -7.85,-7.85 0,-4.34 3.51,-7.85 7.85,-7.85 4.34,0 7.85,3.51 7.85,7.85" /></g><g
         id="g120"><path
           id="path122"
           style="fill:#b14b00;fill-opacity:1;fill-rule:nonzero;stroke:none"
           d="m 344.5,285.1 c 0,4.34 -3.51,7.85 -7.85,7.85 -4.34,0 -7.85,-3.51 -7.85,-7.85 0,-4.34 3.51,-7.85 7.85,-7.85 4.34,0 7.85,3.51 7.85,7.85" /></g><g
         id="g124"><path
           id="path126"
           style="fill:#ff9900;fill-opacity:1;fill-rule:nonzero;stroke:#ed8e00;stroke-width:0.75;stroke-linecap:butt;stroke-linejoin:miter;stroke-miterlimit:10;stroke-dasharray:none;stroke-opacity:1"
           d="m 113.99,217.95 c 0,3.72 -3.02,6.74 -6.74,6.74 -3.72,0 -6.74,-3.02 -6.74,-6.74 0,-3.72 3.02,-6.74 6.74,-6.74 3.72,0 6.74,3.02 6.74,6.74" /></g><g
         id="g128"><path
           id="path130"
           style="fill:#b85200;fill-opacity:1;fill-rule:nonzero;stroke:none"
           d="m 113.99,217.95 c 0,3.72 -3.02,6.74 -6.74,6.74 -3.72,0 -6.74,-3.02 -6.74,-6.74 0,-3.72 3.02,-6.74 6.74,-6.74 3.72,0 6.74,3.02 6.74,6.74" /></g><g
         id="g132"><path
           id="path134"
           style="fill:#ff9900;fill-opacity:1;fill-rule:nonzero;stroke:#ed8e00;stroke-width:0.75;stroke-linecap:butt;stroke-linejoin:miter;stroke-miterlimit:10;stroke-dasharray:none;stroke-opacity:1"
           d="m 88.96,280.05 c 0,3.27 -2.64,5.91 -5.91,5.91 -3.27,0 -5.91,-2.64 -5.91,-5.91 0,-3.27 2.64,-5.91 5.91,-5.91 3.27,0 5.91,2.64 5.91,5.91" /></g><g
         id="g136"><path
           id="path138"
           style="fill:#bf5900;fill-opacity:1;fill-rule:nonzero;stroke:none"
           d="m 88.96,280.05 c 0,3.27 -2.64,5.91 -5.91,5.91 -3.27,0 -5.91,-2.64 -5.91,-5.91 0,-3.27 2.64,-5.91 5.91,-5.91 3.27,0 5.91,2.64 5.91,5.91" /></g><g
         id="g140"><path
           id="path142"
           style="fill:#ff9900;fill-opacity:1;fill-rule:nonzero;stroke:#ed8e00;stroke-width:0.75;stroke-linecap:butt;stroke-linejoin:miter;stroke-miterlimit:10;stroke-dasharray:none;stroke-opacity:1"
           d="m 256.62,182.15 c 0,4.57 -3.7,8.27 -8.27,8.27 -4.57,0 -8.27,-3.7 -8.27,-8.27 0,-4.57 3.7,-8.27 8.27,-8.27 4.57,0 8.27,3.7 8.27,8.27" /></g><g
         id="g144"><path
           id="path146"
           style="fill:#ae4800;fill-opacity:1;fill-rule:nonzero;stroke:none"
           d="m 256.62,182.15 c 0,4.57 -3.7,8.27 -8.27,8.27 -4.57,0 -8.27,-3.7 -8.27,-8.27 0,-4.57 3.7,-8.27 8.27,-8.27 4.57,0 8.27,3.7 8.27,8.27" /></g><g
         id="g148"><path
           id="path150"
           style="fill:#ff9900;fill-opacity:1;fill-rule:nonzero;stroke:#ed8e00;stroke-width:0.75;stroke-linecap:butt;stroke-linejoin:miter;stroke-miterlimit:10;stroke-dasharray:none;stroke-opacity:1"
           d="m 327.32,384.6 c 0,3.02 -2.45,5.47 -5.47,5.47 -3.02,0 -5.47,-2.45 -5.47,-5.47 0,-3.02 2.45,-5.47 5.47,-5.47 3.02,0 5.47,2.45 5.47,5.47" /></g><g
         id="g152"><path
           id="path154"
           style="fill:#c25c00;fill-opacity:1;fill-rule:nonzero;stroke:none"
           d="m 327.32,384.6 c 0,3.02 -2.45,5.47 -5.47,5.47 -3.02,0 -5.47,-2.45 -5.47,-5.47 0,-3.02 2.45,-5.47 5.47,-5.47 3.02,0 5.47,2.45 5.47,5.47" /></g><g
         id="g156"><path
           id="path158"
           style="fill:#ff9900;fill-opacity:1;fill-rule:nonzero;stroke:#ed8e00;stroke-width:0.75;stroke-linecap:butt;stroke-linejoin:miter;stroke-miterlimit:10;stroke-dasharray:none;stroke-opacity:1"
           d="m 87.22,344.1 c 0,3.02 -2.45,5.47 -5.47,5.47 -3.02,0 -5.47,-2.45 -5.47,-5.47 0,-3.02 2.45,-5.47 5.47,-5.47 3.02,0 5.47,2.45 5.47,5.47" /></g><g
         id="g160"><path
           id="path162"
           style="fill:#c25c00;fill-opacity:1;fill-rule:nonzero;stroke:none"
           d="m 87.22,344.1 c 0,3.02 -2.45,5.47 -5.47,5.47 -3.02,0 -5.47,-2.45 -5.47,-5.47 0,-3.02 2.45,-5.47 5.47,-5.47 3.02,0 5.47,2.45 5.47,5.47" /></g><g
         id="g164"><path
           id="path166"
           style="fill:#ff9900;fill-opacity:1;fill-rule:nonzero;stroke:#ed8e00;stroke-width:0.75;stroke-linecap:butt;stroke-linejoin:miter;stroke-miterlimit:10;stroke-dasharray:none;stroke-opacity:1"
           d="m 168.62,172 c 0,3.02 -2.45,5.47 -5.47,5.47 -3.02,0 -5.47,-2.45 -5.47,-5.47 0,-3.02 2.45,-5.47 5.47,-5.47 3.02,0 5.47,2.45 5.47,5.47" /></g><g
         id="g168"><path
           id="path170"
           style="fill:#c25c00;fill-opacity:1;fill-rule:nonzero;stroke:none"
           d="m 168.62,172 c 0,3.02 -2.45,5.47 -5.47,5.47 -3.02,0 -5.47,-2.45 -5.47,-5.47 0,-3.02 2.45,-5.47 5.47,-5.47 3.02,0 5.47,2.45 5.47,5.47" /></g><g
         id="g172"><path
           id="path174"
           style="fill:#ff9900;fill-opacity:1;fill-rule:nonzero;stroke:#ed8e00;stroke-width:0.75;stroke-linecap:butt;stroke-linejoin:miter;stroke-miterlimit:10;stroke-dasharray:none;stroke-opacity:1"
           d="m 193.5,421.75 c 0,2.76 -2.24,5 -5,5 -2.76,0 -5,-2.24 -5,-5 0,-2.76 2.24,-5 5,-5 2.76,0 5,2.24 5,5" /></g><g
         id="g176"><path
           id="path178"
           style="fill:#c76100;fill-opacity:1;fill-rule:nonzero;stroke:none"
           d="m 193.5,421.75 c 0,2.76 -2.24,5 -5,5 -2.76,0 -5,-2.24 -5,-5 0,-2.76 2.24,-5 5,-5 2.76,0 5,2.24 5,5" /></g><g
         id="g180"><path
           id="path182"
           style="fill:#ff9900;fill-opacity:1;fill-rule:nonzero;stroke:#ed8e00;stroke-width:0.75;stroke-linecap:butt;stroke-linejoin:miter;stroke-miterlimit:10;stroke-dasharray:none;stroke-opacity:1"
           d="m 259.8,402.35 c 0,2.76 -2.24,5 -5,5 -2.76,0 -5,-2.24 -5,-5 0,-2.76 2.24,-5 5,-5 2.76,0 5,2.24 5,5" /></g><g
         id="g184"><path
           id="path186"
           style="fill:#c76100;fill-opacity:1;fill-rule:nonzero;stroke:none"
           d="m 259.8,402.35 c 0,2.76 -2.24,5 -5,5 -2.76,0 -5,-2.24 -5,-5 0,-2.76 2.24,-5 5,-5 2.76,0 5,2.24 5,5" /></g><g
         transform="matrix(1,0,0,-1,0,506)"
         id="g188"><g
           id="g190"><text
             id="text194"
             style="font-variant:normal;font-weight:normal;font-size:14px;font-family:LucidaSansUnicode;-inkscape-font-specification:LucidaSansUnicode;writing-mode:lr-tb;fill:#000000;fill-opacity:1;fill-rule:nonzero;stroke:none"
             transform="matrix(1,0,0,-1,334.35,272.95)"><tspan
               id="tspan192"
               y="0"
               x="0 7.7280002 11.774 20.454 29.134001 37.73 45.821999 54.627998 62.425999 70.517998 83.580002 91.377998 98.503998 103.74 109.466 117.194 126">aluno-de-mestrado</tspan></text>
</g><g
           id="g196"><text
             id="text200"
             style="font-variant:normal;font-weight:normal;font-size:15px;font-family:LucidaSansUnicode;-inkscape-font-specification:LucidaSansUnicode;writing-mode:lr-tb;fill:#000000;fill-opacity:1;fill-rule:nonzero;stroke:none"
             transform="matrix(1,0,0,-1,445.6,354.1)"><tspan
               id="tspan198"
               y="0"
               x="0 8.2799997 12.615 21.915001 31.215 40.424999 49.095001 58.529999 66.885002 75.555 84.989998 94.199997 103.5 109.11 118.32 124.455 132.735 142.17">aluno-de-doutorado</tspan></text>
</g><g
           id="g202"><text
             id="text206"
             style="font-variant:normal;font-weight:normal;font-size:13px;font-family:LucidaSansUnicode;-inkscape-font-specification:LucidaSansUnicode;writing-mode:lr-tb;fill:#000000;fill-opacity:1;fill-rule:nonzero;stroke:none"
             transform="matrix(1,0,0,-1,121.2,82.7)"><tspan
               id="tspan204"
               y="0"
               x="0 12.129 20.111 28.171 31.927999 36.790001 44.771999">monitor</tspan></text>
</g><g
           id="g208"><text
             id="text212"
             style="font-variant:normal;font-weight:normal;font-size:15px;font-family:LucidaSansUnicode;-inkscape-font-specification:LucidaSansUnicode;writing-mode:lr-tb;fill:#000000;fill-opacity:1;fill-rule:nonzero;stroke:none"
             transform="matrix(1,0,0,-1,208.25,173.05)"><tspan
               id="tspan210"
               y="0"
               x="0 8.2799997 12.615 21.915001 31.215 40.424999 49.095001 58.529999 66.885002 75.555 79.889999 89.190002 93.525002 101.205 105.54 113.82 121.5 129.78 138.99001 147.66 155.34 159.675 168.03 177.33 182.94 187.27499 192.78 197.11501 204.795">aluno-de-iniciacao-cientifica</tspan></text>
</g><g
           id="g214"><text
             id="text218"
             style="font-variant:normal;font-weight:normal;font-size:15px;font-family:LucidaSansUnicode;-inkscape-font-specification:LucidaSansUnicode;writing-mode:lr-tb;fill:#000000;fill-opacity:1;fill-rule:nonzero;stroke:none"
             transform="matrix(1,0,0,-1,500,473.9)"><tspan
               id="tspan216"
               y="0"
               x="0 9.4350004 18.645 26.280001 34.950001 44.384998 53.595001 62.895 68.504997 77.714996 83.849998 92.129997 101.43 110.865">pos-doutorando</tspan></text>
</g><g
           id="g220"><text
             id="text224"
             style="font-variant:normal;font-weight:normal;font-size:13px;font-family:LucidaSansUnicode;-inkscape-font-specification:LucidaSansUnicode;writing-mode:lr-tb;fill:#000000;fill-opacity:1;fill-rule:nonzero;stroke:none"
             transform="matrix(1,0,0,-1,336.65,200.05)"><tspan
               id="tspan222"
               y="0"
               x="0 7.2410002 13.858 18.719999 25.896 33.994999 37.751999 44.928001 50.244999 54.001999 61.984001 69.498001 77.675003 85.656998 89.414001 96.030998 99.788002 106.405 111.267">estagiario-bolsista</tspan></text>
</g><g
           id="g226"><text
             id="text230"
             style="font-variant:normal;font-weight:normal;font-size:12px;font-family:LucidaSansUnicode;-inkscape-font-specification:LucidaSansUnicode;writing-mode:lr-tb;fill:#000000;fill-opacity:1;fill-rule:nonzero;stroke:none"
             transform="matrix(1,0,0,-1,107.25,269.35)"><tspan
               id="tspan228"
               y="0"
               x="0 7.5479999 14.916 18.384001 24.492001 27.959999 34.068001 38.556 45.18 52.116001 59.664001 66.348 73.283997 76.751999 84.192001 87.660004 93.804001 97.272003 103.896 110.04 116.664 124.032 130.968 137.112 140.58 147.26401 154.70399 159.192 162.66 167.064 170.532 176.67599">bolsista-de-iniciacao-cientifica</tspan></text>
</g><g
           id="g232"><text
             id="text236"
             style="font-variant:normal;font-weight:normal;font-size:12px;font-family:LucidaSansUnicode;-inkscape-font-specification:LucidaSansUnicode;writing-mode:lr-tb;fill:#000000;fill-opacity:1;fill-rule:nonzero;stroke:none"
             transform="matrix(1,0,0,-1,83.05,208.05)"><tspan
               id="tspan234"
               y="0"
               x="0 11.196 17.879999 23.988001 28.476 33.383999 40.007999 47.448002 54.995998">mestrando</tspan></text>
</g><g
           id="g238"><text
             id="text242"
             style="font-variant:normal;font-weight:normal;font-size:13px;font-family:LucidaSansUnicode;-inkscape-font-specification:LucidaSansUnicode;writing-mode:lr-tb;fill:#000000;fill-opacity:1;fill-rule:nonzero;stroke:none"
             transform="matrix(1,0,0,-1,248.35,302.6)"><tspan
               id="tspan240"
               y="0"
               x="0 8.177 13.494 21.476 26.247 33.487999 40.105 46.722 54.703999 60.021">professora</tspan></text>
</g><g
           id="g244"><text
             id="text248"
             style="font-variant:normal;font-weight:normal;font-size:12px;font-family:LucidaSansUnicode;-inkscape-font-specification:LucidaSansUnicode;writing-mode:lr-tb;fill:#000000;fill-opacity:1;fill-rule:nonzero;stroke:none"
             transform="matrix(1,0,0,-1,321.85,103.95)"><tspan
               id="tspan246"
               y="0"
               x="0 6.684 12.792 17.280001 23.903999 31.379999 34.848 41.472 46.380001 49.848 57.216 64.152 70.776001 78.323997 83.232002 89.916 97.356003 104.904 108.372">estagiario-aprendiz</tspan></text>
</g><g
           id="g250"><text
             id="text254"
             style="font-variant:normal;font-weight:normal;font-size:12px;font-family:LucidaSansUnicode;-inkscape-font-specification:LucidaSansUnicode;writing-mode:lr-tb;fill:#000000;fill-opacity:1;fill-rule:nonzero;stroke:none"
             transform="matrix(1,0,0,-1,81.75,144.45)"><tspan
               id="tspan252"
               y="0"
               x="0 6.684 12.792 17.280001 23.903999 31.379999 34.848 41.472 46.380001 49.848 57.216 64.152 71.699997 78.384003 85.32 92.003998 99.444 106.92 113.604 121.044 128.48399 135.108 140.01601 143.48399 150.108 157.04401 164.592 172.032 175.5 186.696 190.164 196.308">estagiario-de-engenharia-quimica</tspan></text>
</g><g
           id="g256"><text
             id="text260"
             style="font-variant:normal;font-weight:normal;font-size:12px;font-family:LucidaSansUnicode;-inkscape-font-specification:LucidaSansUnicode;writing-mode:lr-tb;fill:#000000;fill-opacity:1;fill-rule:nonzero;stroke:none"
             transform="matrix(1,0,0,-1,163.15,316.55)"><tspan
               id="tspan258"
               y="0"
               x="0 7.5479999 14.232 20.34 27.888 35.327999 38.796001 44.903999 51.528 59.076 66.444">pesquisador</tspan></text>
</g><g
           id="g262"><text
             id="text266"
             style="font-variant:normal;font-weight:normal;font-size:12px;font-family:LucidaSansUnicode;-inkscape-font-specification:LucidaSansUnicode;writing-mode:lr-tb;fill:#000000;fill-opacity:1;fill-rule:nonzero;stroke:none"
             transform="matrix(1,0,0,-1,188.5,67.3)"><tspan
               id="tspan264"
               y="0"
               x="0 6.684 12.792 17.280001 23.903999 31.379999 34.848 41.472 46.380001 49.848 57.216 64.152 70.776001 76.919998 83.543999 91.092003 97.776001 108.972 112.44 118.584">estagiario-academico</tspan></text>
</g><g
           id="g268"><text
             id="text272"
             style="font-variant:normal;font-weight:normal;font-size:12px;font-family:LucidaSansUnicode;-inkscape-font-specification:LucidaSansUnicode;writing-mode:lr-tb;fill:#000000;fill-opacity:1;fill-rule:nonzero;stroke:none"
             transform="matrix(1,0,0,-1,254.8,86.7)"><tspan
               id="tspan270"
               y="0"
               x="0 6.684 12.792 17.280001 23.903999 31.379999 34.848 41.472 46.380001 49.848 56.472 63.408001 66.875999 74.316002 78.804001 85.487999 90.396004 97.835999">estagiaria-interna</tspan></text>
</g></g></g></g></svg>